<svg width="7" height="12" viewBox="0 0 7 12" fill="none" xmlns="http://www.w3.org/2000/svg">
<path d="M1.38356 0.229988C1.23288 0.081172 1.0411 0 0.815068 0C0.363014 0 0 0.351747 0 0.798196C0 1.02142 0.09589 1.22435 0.253425 1.37993L5.04795 6.00676L0.253425 10.6201C0.09589 10.7756 0 10.9853 0 11.2018C0 11.6483 0.363014 12 0.815068 12C1.0411 12 1.23288 11.9188 1.38356 11.77L6.71233 6.62909C6.90411 6.45321 6.99315 6.23675 7 6C7 5.76325 6.90411 5.56032 6.71233 5.37768L1.38356 0.229988Z" fill="#F2F2F2"/>
</svg>
